<?xml version="1.0" encoding="UTF-8" standalone="no"?>
<!-- Created with Inkscape (http://www.inkscape.org/) -->

<svg
   xmlns:dc="http://purl.org/dc/elements/1.1/"
   xmlns:cc="http://creativecommons.org/ns#"
   xmlns:rdf="http://www.w3.org/1999/02/22-rdf-syntax-ns#"
   xmlns:svg="http://www.w3.org/2000/svg"
   xmlns="http://www.w3.org/2000/svg"
   xmlns:xlink="http://www.w3.org/1999/xlink"
   xmlns:sodipodi="http://sodipodi.sourceforge.net/DTD/sodipodi-0.dtd"
   xmlns:inkscape="http://www.inkscape.org/namespaces/inkscape"
   width="209.77686mm"
   height="126.62172mm"
   viewBox="0 0 209.77685 126.62172"
   version="1.1"
   id="svg8"
   inkscape:version="0.92.5 (2060ec1f9f, 2020-04-08)"
   sodipodi:docname="BACKDROUND.svg"
   style="shape-rendering:crispEdges">
  <defs
     id="defs2">
    <linearGradient
       inkscape:collect="always"
       id="linearGradient5008">
      <stop
         style="stop-color:#8080ff;stop-opacity:1;"
         offset="0"
         id="stop5004" />
      <stop
         style="stop-color:#8080ff;stop-opacity:0;"
         offset="1"
         id="stop5006" />
    </linearGradient>
    <linearGradient
       inkscape:collect="always"
       id="linearGradient4992">
      <stop
         style="stop-color:#5555ff;stop-opacity:1;"
         offset="0"
         id="stop4988" />
      <stop
         style="stop-color:#5555ff;stop-opacity:0;"
         offset="1"
         id="stop4990" />
    </linearGradient>
    <linearGradient
       inkscape:collect="always"
       xlink:href="#linearGradient4992"
       id="linearGradient4994"
       x1="76.614449"
       y1="14.34277"
       x2="209.77686"
       y2="23.654392"
       gradientUnits="userSpaceOnUse" />
    <linearGradient
       inkscape:collect="always"
       xlink:href="#linearGradient5008"
       id="linearGradient5010"
       x1="83.499146"
       y1="116.44727"
       x2="-16.464447"
       y2="124.37992"
       gradientUnits="userSpaceOnUse" />
  </defs>
  <sodipodi:namedview
     id="base"
     pagecolor="#ffffff"
     bordercolor="#666666"
     borderopacity="1.0"
     inkscape:pageopacity="0.0"
     inkscape:pageshadow="2"
     inkscape:zoom="0.7"
     inkscape:cx="439.80725"
     inkscape:cy="190.13642"
     inkscape:document-units="mm"
     inkscape:current-layer="layer1"
     showgrid="false"
     inkscape:window-width="1366"
     inkscape:window-height="745"
     inkscape:window-x="-8"
     inkscape:window-y="-8"
     inkscape:window-maximized="1"
     fit-margin-top="0"
     fit-margin-left="0"
     fit-margin-right="0"
     fit-margin-bottom="0"
     inkscape:showpageshadow="false"
     showborder="false"
     inkscape:pagecheckerboard="false"
     showguides="false" />
  <metadata
     id="metadata5">
    <rdf:RDF>
      <cc:Work
         rdf:about="">
        <dc:format>image/svg+xml</dc:format>
        <dc:type
           rdf:resource="http://purl.org/dc/dcmitype/StillImage" />
        <dc:title></dc:title>
      </cc:Work>
    </rdf:RDF>
  </metadata>
  <g
     inkscape:label="BACKGROUND"
     inkscape:groupmode="layer"
     id="layer1"
     style="opacity:0.97000002"
     transform="translate(0.377754,-226.31848)">
    <path
       style="opacity:0.55699978;fill:url(#linearGradient5010);fill-opacity:1;fill-rule:evenodd;stroke:none;stroke-width:1.56500006;stroke-miterlimit:4;stroke-dasharray:none;stroke-dashoffset:0;stroke-opacity:1"
       d="m 102.43561,127.77928 a 31.003266,14.699824 0 0 0 0.0336,-0.11266 31.003266,14.699824 0 0 0 0.12764,-1.46812 31.003266,14.699824 0 0 0 -0.1819,-1.46658 31.003266,14.699824 0 0 0 -0.4899,-1.45107 31.003266,14.699824 0 0 0 -0.79323,-1.42059 31.003266,14.699824 0 0 0 -1.08779,-1.37563 31.003266,14.699824 0 0 0 -1.372525,-1.31723 31.003266,14.699824 0 0 0 -1.642792,-1.24592 31.003266,14.699824 0 0 0 -1.897042,-1.1622 31.003266,14.699824 0 0 0 -2.132171,-1.06609 31.003266,14.699824 0 0 0 -2.346108,-0.96014 31.003266,14.699824 0 0 0 -2.536796,-0.8444 31.003266,14.699824 0 0 0 -2.701644,-0.71985 31.003266,14.699824 0 0 0 -2.83962,-0.58808 31.003266,14.699824 0 0 0 -1.331703,-0.22324 l -3.020486,-0.39016 a 31.003266,14.699824 0 0 0 -3.057179,-0.24029 31.003266,14.699824 0 0 0 -3.092833,-0.0946 31.003266,14.699824 0 0 0 -3.096969,0.0522 31.003266,14.699824 0 0 0 -3.070614,0.19896 31.003266,14.699824 0 0 0 -3.013252,0.34313 31.003266,14.699824 0 0 0 -2.925922,0.48369 31.003266,14.699824 0 0 0 -2.809647,0.62012 31.003266,14.699824 0 0 0 -2.665471,0.74982 31.003266,14.699824 0 0 0 -1.666562,0.56224 32.874148,14.165285 0 0 0 -2.331641,-0.99735 32.874148,14.165285 0 0 0 -2.551266,-0.89245 32.874148,14.165285 0 0 0 -2.745568,-0.77825 32.874148,14.165285 0 0 0 -2.911967,-0.65578 32.874148,14.165285 0 0 0 -3.049426,-0.52761 32.874148,14.165285 0 0 0 -0.439251,-0.0641 L 35.59266,110.3514 a 32.874148,14.165285 0 0 0 -3.241146,-0.23306 32.874148,14.165285 0 0 0 -3.27887,-0.093 32.874148,14.165285 0 0 0 -1.497066,0.005 32.874148,14.165285 0 0 0 -3.275252,0.11368 32.874148,14.165285 0 0 0 -3.232878,0.25322 32.874148,14.165285 0 0 0 -3.157946,0.3917 32.874148,14.165285 0 0 0 -3.05201,0.52504 32.874148,14.165285 0 0 0 -2.914551,0.65422 32.874148,14.165285 0 0 0 -2.7481528,0.77618 32.874148,14.165285 0 0 0 -2.5548827,0.89038 32.874148,14.165285 0 0 0 -2.3362915,0.99581 32.874148,14.165285 0 0 0 -2.0934122,1.09141 32.874148,14.165285 0 0 0 -1.82986244,1.17615 32.874148,14.165285 0 0 0 -0.41392821,0.33383 v 10.54768 z"
       id="path4770"
       inkscape:connector-curvature="0" />
    <path
       inkscape:connector-curvature="0"
       style="opacity:0.55699978;fill:#000080;fill-opacity:0.99215686;fill-rule:evenodd;stroke:none;stroke-width:1.56500006;stroke-miterlimit:4;stroke-dasharray:none;stroke-dashoffset:0;stroke-opacity:1"
       d="M 0,1.0448975 V 117.11895 a 32.874148,14.165285 0 0 1 0.41392821,-0.33383 32.874148,14.165285 0 0 1 1.82986249,-1.17616 32.874148,14.165285 0 0 1 2.0934122,-1.0914 32.874148,14.165285 0 0 1 2.3362914,-0.99581 32.874148,14.165285 0 0 1 2.5548828,-0.89038 32.874148,14.165285 0 0 1 2.7481529,-0.77618 32.874148,14.165285 0 0 1 2.914551,-0.65423 32.874148,14.165285 0 0 1 3.05201,-0.52503 32.874148,14.165285 0 0 1 3.157946,-0.39171 32.874148,14.165285 0 0 1 3.232878,-0.25321 32.874148,14.165285 0 0 1 3.275252,-0.11369 32.874148,14.165285 0 0 1 1.497066,-0.005 32.874148,14.165285 0 0 1 3.27887,0.093 32.874148,14.165285 0 0 1 3.241146,0.23306 l 3.202905,0.37569 a 32.874148,14.165285 0 0 1 0.439251,0.0641 32.874148,14.165285 0 0 1 3.049426,0.52762 32.874148,14.165285 0 0 1 2.911967,0.65577 32.874148,14.165285 0 0 1 2.745568,0.77825 32.874148,14.165285 0 0 1 2.551266,0.89245 32.874148,14.165285 0 0 1 2.33164,0.99735 31.003266,14.699824 0 0 1 1.666563,-0.56224 31.003266,14.699824 0 0 1 2.665471,-0.74982 31.003266,14.699824 0 0 1 2.809647,-0.62012 31.003266,14.699824 0 0 1 2.925922,-0.48369 31.003266,14.699824 0 0 1 3.013252,-0.34313 31.003266,14.699824 0 0 1 3.070614,-0.19896 31.003266,14.699824 0 0 1 3.096969,-0.0522 31.003266,14.699824 0 0 1 3.092833,0.0946 31.003266,14.699824 0 0 1 3.057179,0.24029 l 3.020486,0.39016 a 31.003266,14.699824 0 0 1 1.331703,0.22324 31.003266,14.699824 0 0 1 2.83962,0.58808 31.003266,14.699824 0 0 1 2.701644,0.71985 31.003266,14.699824 0 0 1 2.536796,0.8444 31.003266,14.699824 0 0 1 2.346108,0.96014 31.003266,14.699824 0 0 1 2.132171,1.06609 31.003266,14.699824 0 0 1 1.897041,1.1622 31.003266,14.699824 0 0 1 1.642793,1.24592 31.003266,14.699824 0 0 1 1.372526,1.31723 31.003266,14.699824 0 0 1 1.08779,1.37563 31.003266,14.699824 0 0 1 0.79323,1.42059 31.003266,14.699824 0 0 1 0.4899,1.45107 31.003266,14.699824 0 0 1 0.1819,1.46658 31.003266,14.699824 0 0 1 -0.12764,1.46812 31.003266,14.699824 0 0 1 -0.0336,0.11266 H 209.77686 V 36.952266 H 119.0625 c -1.49197,0 -2.96577,-0.07511 -4.41782,-0.221692 -1.45205,-0.146584 -2.88256,-0.36455 -4.28759,-0.650607 -1.40503,-0.286055 -2.78477,-0.639916 -4.13567,-1.058334 -1.35089,-0.418414 -2.6729,-0.901205 -3.96255,-1.444871 -1.28965,-0.543666 -2.546951,-1.148424 -3.768241,-1.810226 -1.221293,-0.661802 -2.406417,-1.381048 -3.552238,-2.153872 -1.145823,-0.772832 -2.252321,-1.599076 -3.31556,-2.47582 C 90.55959,26.260101 89.539716,25.333302 88.566169,24.359753 87.592621,23.386205 86.665823,22.365816 85.789078,21.302575 84.912334,20.239335 84.085572,19.132837 83.312742,17.987016 82.539913,16.841194 81.820672,15.656068 81.15887,14.434778 80.497065,13.213487 79.892826,11.956181 79.34916,10.666532 78.805494,9.3768835 78.322703,8.0548789 77.904289,6.7039836 77.485871,5.353088 77.131494,3.9733492 76.845437,2.5683186 76.743802,2.0691069 76.698762,1.5503349 76.614445,1.0448975 Z"
       id="path4752" />
    <path
       inkscape:connector-curvature="0"
       style="opacity:0.55699978;fill:url(#linearGradient4994);fill-opacity:1;fill-rule:evenodd;stroke:none;stroke-width:1.56500006;stroke-miterlimit:4;stroke-dasharray:none;stroke-dashoffset:0;stroke-opacity:1"
       d="m 82.857474,1.0448975 h -6.243029 c 0.08432,0.5054374 0.129357,1.0242094 0.230992,1.5234211 0.286057,1.4050306 0.640434,2.7847694 1.058852,4.135665 0.418414,1.3508953 0.901205,2.6728999 1.444871,3.9625484 0.543666,1.289649 1.147905,2.546955 1.80971,3.768246 0.661802,1.22129 1.381043,2.406416 2.153872,3.552238 0.77283,1.145821 1.599592,2.252319 2.476336,3.315559 0.876745,1.063241 1.803543,2.08363 2.777091,3.057178 0.973547,0.973549 1.993421,1.900347 3.056662,2.777091 1.063239,0.876744 2.169737,1.702988 3.31556,2.47582 1.145821,0.772826 2.330945,1.49207 3.552238,2.153872 1.22129,0.661802 2.478591,1.26656 3.768241,1.810226 1.28965,0.543666 2.61166,1.026457 3.96255,1.444871 1.3509,0.418418 2.73064,0.772279 4.13567,1.058334 1.40503,0.286057 2.83554,0.504023 4.28759,0.650607 1.45205,0.146585 2.92585,0.221692 4.41782,0.221692 h 90.71436 v -6.803718 h -86.17872 c -1.49196,0 -2.96576,-0.07511 -4.41782,-0.221692 -1.45205,-0.146584 -2.88256,-0.36455 -4.28759,-0.650607 -1.40503,-0.286055 -2.78478,-0.639916 -4.13567,-1.058334 -1.3509,-0.418414 -2.6729,-0.901208 -3.96255,-1.444873 -1.28965,-0.543666 -2.54695,-1.148423 -3.76824,-1.810225 -1.22129,-0.661802 -2.40641,-1.381045 -3.552241,-2.153874 -1.14582,-0.772832 -2.252323,-1.599074 -3.31556,-2.475818 C 95.095231,19.45638 94.075357,18.529583 93.10181,17.556034 92.128262,16.582485 91.201464,15.562097 90.324719,14.498856 89.447975,13.435615 88.621213,12.329119 87.848383,11.183297 87.075554,10.037476 86.356311,8.8523494 85.694511,7.6310587 85.032706,6.4097677 84.428467,5.1524624 83.884801,3.8628132 83.498189,2.9457144 83.18126,1.9934746 82.857474,1.0448975 Z"
       id="path4757" />
    <path
       inkscape:connector-curvature="0"
       style="opacity:0.55699978;fill:#aaaaff;fill-opacity:1;fill-rule:evenodd;stroke:none;stroke-width:1.56500006;stroke-miterlimit:4;stroke-dasharray:none;stroke-dashoffset:0;stroke-opacity:1"
       d="m 87.242736,1.0448975 h -4.385262 c 0.323786,0.948577 0.640715,1.9008169 1.027327,2.8179157 0.543666,1.2896492 1.147905,2.5469545 1.80971,3.7682455 0.6618,1.2212907 1.381043,2.4064173 2.153872,3.5522383 0.77283,1.145822 1.599592,2.252318 2.476336,3.315559 0.876745,1.063241 1.803543,2.083629 2.777091,3.057178 0.973547,0.973549 1.993421,1.900346 3.056659,2.777091 1.063237,0.876744 2.16974,1.702986 3.31556,2.475818 1.145831,0.772829 2.330951,1.492072 3.552241,2.153874 1.22129,0.661802 2.47859,1.26656 3.76824,1.810225 1.28965,0.543665 2.61165,1.026459 3.96255,1.444873 1.35089,0.418418 2.73064,0.772279 4.13567,1.058334 1.40503,0.286057 2.83554,0.504023 4.28759,0.650607 1.45206,0.146582 2.92586,0.221692 4.41782,0.221692 h 86.17872 v -5.480803 h -84.09978 c -1.49196,0 -2.96576,-0.07511 -4.41782,-0.221692 -1.45205,-0.146585 -2.88256,-0.36455 -4.28759,-0.650606 -1.40503,-0.286054 -2.78478,-0.639917 -4.13566,-1.058334 -1.35091,-0.418415 -2.6729,-0.901207 -3.96255,-1.444873 -1.28965,-0.543665 -2.54696,-1.148423 -3.76825,-1.810225 -1.22129,-0.661802 -2.40641,-1.381045 -3.55224,-2.153874 -1.14582,-0.772832 -2.252319,-1.599074 -3.315556,-2.475818 C 97.174173,13.975578 96.1543,13.048781 95.180752,12.075232 94.207204,11.101683 93.280406,10.081296 92.403662,9.018054 91.526917,7.9548129 90.700155,6.8483162 89.927326,5.7024941 89.154496,4.5566732 88.435253,3.371547 87.773453,2.1502563 87.579331,1.7920257 87.426876,1.4092326 87.242736,1.0448975 Z"
       id="path4762" />
    <path
       inkscape:connector-curvature="0"
       style="opacity:0.55699978;fill:#d5d5ff;fill-opacity:1;fill-rule:evenodd;stroke:none;stroke-width:1.56500006;stroke-miterlimit:4;stroke-dasharray:none;stroke-dashoffset:0;stroke-opacity:1"
       d="m 87.242736,1.0448975 c 0.18414,0.3643351 0.336595,0.7471282 0.530717,1.1053588 0.6618,1.2212907 1.381043,2.4064169 2.153873,3.5522378 0.772829,1.1458221 1.599591,2.2523188 2.476336,3.3155599 0.876744,1.063242 1.803542,2.083629 2.77709,3.057178 0.973548,0.973549 1.993421,1.900346 3.056662,2.777091 1.063237,0.876744 2.169736,1.702986 3.315556,2.475818 1.14583,0.772829 2.33095,1.492072 3.55224,2.153874 1.22129,0.661802 2.4786,1.26656 3.76825,1.810225 1.28965,0.543666 2.61164,1.026458 3.96255,1.444873 1.35088,0.418417 2.73063,0.77228 4.13566,1.058334 1.40503,0.286056 2.83554,0.504021 4.28759,0.650606 1.45206,0.146584 2.92586,0.221692 4.41782,0.221692 h 84.09978 V 1.0448975 Z"
       id="rect4747" />
    <path
       style="opacity:1;fill:#000080;fill-opacity:0.5372549;fill-rule:evenodd;stroke:#b20000;stroke-width:0;stroke-miterlimit:4;stroke-dasharray:none;stroke-dashoffset:0;stroke-opacity:1"
       d="M 184.75977,851.42773 H -1.3007812 V 1329.998 H 791.55664 v -243.1269 a 567.10065,220.69516 0 0 1 -53.20117,0.6133 567.10065,220.69516 0 0 1 -56.54492,-1.5528 567.10065,220.69516 0 0 1 -55.86524,-3.7402 567.10065,220.69516 0 0 1 -25.06445,-2.4219 A 567.10065,220.69516 0 0 1 547,1072.916 a 567.10065,220.69516 0 0 1 -51.85156,-8.914 567.10065,220.69516 0 0 1 -49.30664,-10.8848 567.10065,220.69516 0 0 1 -46.26758,-12.7461 567.10065,220.69516 0 0 1 -42.76758,-14.4785 567.10065,220.69516 0 0 1 -38.83984,-16.0684 567.10065,220.69516 0 0 1 -34.52344,-17.49803 567.10065,220.69516 0 0 1 -29.86133,-18.75 567.10065,220.69516 0 0 1 -24.9043,-19.81836 567.10065,220.69516 0 0 1 -19.69335,-20.68554 567.10065,220.69516 0 0 1 -14.28907,-21.34766 567.10065,220.69516 0 0 1 -8.74219,-21.79688 567.10065,220.69516 0 0 1 -3.10546,-22.02734 567.10065,220.69516 0 0 1 1.91211,-16.47266 z"
       id="path5700"
       transform="matrix(0.26458333,0,0,0.26458333,-0.03358885,1.0448975)"
       inkscape:connector-curvature="0" />
    <path
       style="opacity:1;fill:#2c2ca0;fill-opacity:0.5372549;fill-rule:evenodd;stroke:#b20000;stroke-width:0;stroke-miterlimit:4;stroke-dasharray:none;stroke-dashoffset:0;stroke-opacity:1"
       d="m 184.75977,851.42773 a 567.10065,220.69516 0 0 0 -1.91211,16.47266 567.10065,220.69516 0 0 0 3.10546,22.02734 567.10065,220.69516 0 0 0 8.74219,21.79688 567.10065,220.69516 0 0 0 14.28907,21.34766 567.10065,220.69516 0 0 0 19.69335,20.68554 567.10065,220.69516 0 0 0 24.9043,19.81836 567.10065,220.69516 0 0 0 29.86133,18.75 567.10065,220.69516 0 0 0 34.52344,17.49803 567.10065,220.69516 0 0 0 38.83984,16.0684 567.10065,220.69516 0 0 0 42.76758,14.4785 567.10065,220.69516 0 0 0 46.26758,12.7461 567.10065,220.69516 0 0 0 49.30664,10.8848 567.10065,220.69516 0 0 0 51.85156,8.914 567.10065,220.69516 0 0 0 53.88086,6.8535 567.10065,220.69516 0 0 0 25.06445,2.4219 567.10065,220.69516 0 0 0 55.86524,3.7402 567.10065,220.69516 0 0 0 56.54492,1.5528 567.10065,220.69516 0 0 0 53.20117,-0.6133 V 851.42773 Z"
       id="rect4769"
       transform="matrix(0.26458333,0,0,0.26458333,-0.03358885,1.0448975)"
       inkscape:connector-curvature="0" />
    <path
       id="path5702"
       d="m 63.168743,226.31848 a 136.66408,36.839156 0 0 0 -0.460793,2.74967 136.66408,36.839156 0 0 0 0.748375,3.67688 136.66408,36.839156 0 0 0 2.106757,3.6384 136.66408,36.839156 0 0 0 3.443486,3.56342 136.66408,36.839156 0 0 0 4.745847,3.4529 136.66408,36.839156 0 0 0 6.001622,3.30815 136.66408,36.839156 0 0 0 7.196201,3.12981 136.66408,36.839156 0 0 0 8.319712,2.92083 136.66408,36.839156 0 0 0 9.35991,2.68219 136.66408,36.839156 0 0 0 10.30644,2.4168 136.66408,36.839156 0 0 0 11.1499,2.12762 136.66408,36.839156 0 0 0 11.88228,1.81693 136.66408,36.839156 0 0 0 12.49557,1.48794 136.66408,36.839156 0 0 0 12.98461,1.14402 136.66408,36.839156 0 0 0 6.04021,0.40426 136.66408,36.839156 0 0 0 13.46282,0.62433 136.66408,36.839156 0 0 0 13.6266,0.25921 136.66408,36.839156 0 0 0 12.8208,-0.10238 v -39.30098 z"
       style="opacity:1;fill:#d5d5ff;fill-opacity:0.5372549;fill-rule:evenodd;stroke:#b20000;stroke-width:0;stroke-miterlimit:4;stroke-dasharray:none;stroke-dashoffset:0;stroke-opacity:1"
       inkscape:connector-curvature="0" />
  </g>
  <g
     inkscape:groupmode="layer"
     id="layer2"
     inkscape:label="LOGO"
     style="display:inline"
     transform="translate(0.377754,-226.31848)"
     sodipodi:insensitive="true">
    <path
       style="opacity:0.55699978;fill:#ffd42a;fill-opacity:1;fill-rule:evenodd;stroke:none;stroke-width:0.60848433;stroke-miterlimit:4;stroke-dasharray:none;stroke-dashoffset:0;stroke-opacity:1"
       id="path4772"
       sodipodi:type="arc"
       sodipodi:cx="23.614697"
       sodipodi:cy="-35.69875"
       sodipodi:rx="13.363477"
       sodipodi:ry="8.5526247"
       sodipodi:start="5.0288695"
       sodipodi:end="4.9278499"
       sodipodi:open="true"
       d="m 27.773729,-43.826622 a 13.363477,8.5526247 0 0 1 8.641744,10.583557 13.363477,8.5526247 0 0 1 -16.313313,5.796211 13.363477,8.5526247 0 0 1 -9.465639,-10.290823 13.363477,8.5526247 0 0 1 15.835256,-6.315943" />
    <path
       d="m 24.853315,-40.592649 a 11.13623,6.8944626 0 0 1 7.201454,8.531643 11.13623,6.8944626 0 0 1 -13.594427,4.672456 11.13623,6.8944626 0 0 1 -7.888033,-8.295664 11.13623,6.8944626 0 0 1 13.196047,-5.091423"
       sodipodi:open="true"
       sodipodi:end="4.9278499"
       sodipodi:start="5.0288695"
       sodipodi:ry="6.8944626"
       sodipodi:rx="11.13623"
       sodipodi:cy="-34.040588"
       sodipodi:cx="21.387455"
       sodipodi:type="arc"
       id="path4774"
       style="opacity:0.55699978;fill:#806600;fill-opacity:1;fill-rule:evenodd;stroke:none;stroke-width:0.49872288;stroke-miterlimit:4;stroke-dasharray:none;stroke-dashoffset:0;stroke-opacity:1" />
    <path
       style="opacity:0.55699978;fill:#000000;fill-opacity:1;fill-rule:evenodd;stroke:none;stroke-width:0.33525854;stroke-miterlimit:4;stroke-dasharray:none;stroke-dashoffset:0;stroke-opacity:1"
       id="path4776"
       sodipodi:type="arc"
       sodipodi:cx="19.283943"
       sodipodi:cy="-32.295155"
       sodipodi:rx="7.7953601"
       sodipodi:ry="4.4508553"
       sodipodi:start="5.0288695"
       sodipodi:end="4.9278499"
       sodipodi:open="true"
       d="m 21.710045,-36.524965 a 7.7953601,4.4508553 0 0 1 5.041017,5.507769 7.7953601,4.4508553 0 0 1 -9.516098,3.016395 7.7953601,4.4508553 0 0 1 -5.521622,-5.355428 7.7953601,4.4508553 0 0 1 9.237231,-3.286868" />
    <path
       d="m 27.773729,-43.826622 a 13.363477,8.5526247 0 0 1 8.641744,10.583557 13.363477,8.5526247 0 0 1 -16.313313,5.796211 13.363477,8.5526247 0 0 1 -9.465639,-10.290823 13.363477,8.5526247 0 0 1 15.835256,-6.315943"
       sodipodi:open="true"
       sodipodi:end="4.9278499"
       sodipodi:start="5.0288695"
       sodipodi:ry="8.5526247"
       sodipodi:rx="13.363477"
       sodipodi:cy="-35.69875"
       sodipodi:cx="23.614697"
       sodipodi:type="arc"
       id="path4842"
       style="opacity:0.55699978;fill:#0000aa;fill-opacity:1;fill-rule:evenodd;stroke:none;stroke-width:0.60848433;stroke-miterlimit:4;stroke-dasharray:none;stroke-dashoffset:0;stroke-opacity:1" />
    <path
       style="opacity:0.55699978;fill:#0000ff;fill-opacity:1;fill-rule:evenodd;stroke:none;stroke-width:0.49872288;stroke-miterlimit:4;stroke-dasharray:none;stroke-dashoffset:0;stroke-opacity:1"
       id="path4844"
       sodipodi:type="arc"
       sodipodi:cx="21.387455"
       sodipodi:cy="-34.040588"
       sodipodi:rx="11.13623"
       sodipodi:ry="6.8944626"
       sodipodi:start="5.0288695"
       sodipodi:end="4.9278499"
       sodipodi:open="true"
       d="m 24.853315,-40.592649 a 11.13623,6.8944626 0 0 1 7.201454,8.531643 11.13623,6.8944626 0 0 1 -13.594427,4.672456 11.13623,6.8944626 0 0 1 -7.888033,-8.295664 11.13623,6.8944626 0 0 1 13.196047,-5.091423" />
    <path
       d="m 21.710045,-36.524965 a 7.7953601,4.4508553 0 0 1 5.041017,5.507769 7.7953601,4.4508553 0 0 1 -9.516098,3.016395 7.7953601,4.4508553 0 0 1 -5.521622,-5.355428 7.7953601,4.4508553 0 0 1 9.237231,-3.286868"
       sodipodi:open="true"
       sodipodi:end="4.9278499"
       sodipodi:start="5.0288695"
       sodipodi:ry="4.4508553"
       sodipodi:rx="7.7953601"
       sodipodi:cy="-32.295155"
       sodipodi:cx="19.283943"
       sodipodi:type="arc"
       id="path4846"
       style="opacity:0.55699978;fill:#ffffff;fill-opacity:1;fill-rule:evenodd;stroke:none;stroke-width:0.33525854;stroke-miterlimit:4;stroke-dasharray:none;stroke-dashoffset:0;stroke-opacity:1" />
    <text
       id="text4850"
       y="-23.137077"
       x="5.9749017"
       style="font-style:normal;font-variant:normal;font-weight:normal;font-stretch:normal;font-size:7.27604151px;line-height:125%;font-family:Forte;-inkscape-font-specification:'Forte, Normal';text-align:start;letter-spacing:0px;word-spacing:0px;writing-mode:lr-tb;text-anchor:start;fill:#ffffff;fill-opacity:1;stroke:none;stroke-width:0.26458332px;stroke-linecap:butt;stroke-linejoin:miter;stroke-opacity:1"
       xml:space="preserve"><tspan
         style="font-style:normal;font-variant:normal;font-weight:normal;font-stretch:semi-expanded;font-size:5.64444447px;line-height:125%;font-family:'BankGothic Lt BT';-inkscape-font-specification:'BankGothic Lt BT Semi-Expanded';fill:#ffffff;stroke-width:0.26458332px"
         y="-23.137077"
         x="5.9749017"
         id="tspan4848"
         sodipodi:role="line">CONSTANTIN. C</tspan></text>
  </g>
</svg>
